<svg xmlns="http://www.w3.org/2000/svg" version="1.1" color="#e10098" width="128" height="128" viewBox="0,0,256,256"
     stroke="currentColor">
    <g fill="none" fill-rule="nonzero" stroke-width="2" stroke-linecap="round" stroke-linejoin="round"
       stroke-miterlimit="10" stroke-dasharray="" stroke-dashoffset="0" font-family="none" font-weight="none"
       font-size="none" text-anchor="none" style="mix-blend-mode: normal">
        <g transform="translate(0,256) rotate(-90) scale(10.66667,10.66667)">
            <path d="M0,0h24v24h-24z" stroke="none"/>
            <path d="M6,20c0,-1.10457 -0.89543,-2 -2,-2c-1.10457,0 -2,0.89543 -2,2c0,1.10457 0.89543,2 2,2c1.10457,0 2,-0.89543 2,-2z"/>
            <path d="M16,4c0,-1.10457 -0.89543,-2 -2,-2c-1.10457,0 -2,0.89543 -2,2c0,1.10457 0.89543,2 2,2c1.10457,0 2,-0.89543 2,-2z"/>
            <path d="M16,20c0,-1.10457 -0.89543,-2 -2,-2c-1.10457,0 -2,0.89543 -2,2c0,1.10457 0.89543,2 2,2c1.10457,0 2,-0.89543 2,-2z"/>
            <path d="M11,12c0,-1.10457 -0.89543,-2 -2,-2c-1.10457,0 -2,0.89543 -2,2c0,1.10457 0.89543,2 2,2c1.10457,0 2,-0.89543 2,-2z"/>
            <path d="M21,12c0,-1.10457 -0.89543,-2 -2,-2c-1.10457,0 -2,0.89543 -2,2c0,1.10457 0.89543,2 2,2c1.10457,0 2,-0.89543 2,-2z"/>
            <path d="M5.058,18.306l2.88,-4.606"/>
            <path d="M10.061,10.303l2.877,-4.604"/>
            <path d="M10.065,13.705l2.876,4.6"/>
            <path d="M15.063,5.7l2.881,4.61"/>
        </g>
    </g>
</svg>